<svg width="13" height="16" viewBox="0 0 13 16" fill="none" xmlns="http://www.w3.org/2000/svg">
<path d="M6.49997 16C5.32713 15.0425 4.24001 13.9929 3.24998 12.862C1.76428 11.1637 8.20539e-07 8.63441 8.20539e-07 6.22424C-0.00131604 3.70702 1.58251 1.43713 4.0124 0.473778C6.44229 -0.489573 9.2393 0.0435046 11.0982 1.82426C12.3206 2.989 13.0054 4.57337 13 6.22424C13 8.63441 11.2357 11.1637 9.74995 12.862C8.75993 13.9929 7.67281 15.0425 6.49997 16ZM6.49997 1.78071C3.93707 1.78365 1.8602 3.77136 1.85713 6.22424C1.85713 7.26047 2.34649 9.05477 4.67533 11.7218C5.24932 12.3777 5.85834 13.0048 6.49997 13.6005C7.14165 13.0055 7.75097 12.3793 8.32553 11.7244C10.6534 9.05388 11.1428 7.25958 11.1428 6.22424C11.1397 3.77136 9.06286 1.78365 6.49997 1.78071ZM6.49997 8.89036C4.96147 8.89036 3.71427 7.69669 3.71427 6.22424C3.71427 4.75178 4.96147 3.55812 6.49997 3.55812C8.03847 3.55812 9.28567 4.75178 9.28567 6.22424C9.28567 6.93134 8.99218 7.60947 8.46976 8.10947C7.94734 8.60946 7.23878 8.89036 6.49997 8.89036Z" fill="#737373"/>
</svg>
