<svg width="44" height="50" viewBox="0 0 44 50" fill="none" xmlns="http://www.w3.org/2000/svg">
<path d="M39.1111 49.0776H4.88889C2.18883 49.0776 0 46.8804 0 44.1699V9.81553C0 7.10504 2.18883 4.90776 4.88889 4.90776H9.77778V0H14.6667V4.90776H29.3333V0H34.2222V4.90776H39.1111C41.8112 4.90776 44 7.10504 44 9.81553V44.1699C44 46.8804 41.8112 49.0776 39.1111 49.0776ZM4.88889 19.6311V44.1699H39.1111V19.6311H4.88889ZM4.88889 9.81553V14.7233H39.1111V9.81553H4.88889ZM34.2222 39.2621H29.3333V34.3543H34.2222V39.2621ZM24.4444 39.2621H19.5556V34.3543H24.4444V39.2621ZM14.6667 39.2621H9.77778V34.3543H14.6667V39.2621ZM34.2222 29.4466H29.3333V24.5388H34.2222V29.4466ZM24.4444 29.4466H19.5556V24.5388H24.4444V29.4466ZM14.6667 29.4466H9.77778V24.5388H14.6667V29.4466Z" fill="#4F46BA"/>
</svg>
