<svg width="47" height="49" viewBox="0 0 47 49" fill="none" xmlns="http://www.w3.org/2000/svg">
<path d="M23.5073 48.0553C11.5373 47.8964 1.87214 38.1641 1.71437 26.1111C1.87214 14.0581 11.5373 4.32582 23.5073 4.16695C35.4772 4.32582 45.1424 14.0581 45.3002 26.1111C45.1424 38.1641 35.4772 47.8964 23.5073 48.0553ZM23.5073 9.04344C14.1973 9.16685 6.67981 16.7365 6.55724 26.1111C6.67981 35.4858 14.1973 43.0554 23.5073 43.1788C32.8173 43.0554 40.3347 35.4858 40.4573 26.1111C40.3347 16.7365 32.8173 9.16685 23.5073 9.04344ZM35.6144 28.5494H21.0858V13.9199H25.9287V23.6729H35.6144V28.5494ZM43.5858 10.7697L36.2997 3.45499L39.7115 0L47 7.31472L43.5858 10.7673V10.7697ZM3.42633 10.7697L0 7.31472L7.2425 0L10.6688 3.45499L3.43117 10.7697H3.42633Z" fill="#4F46BA"/>
</svg>
