<svg width="52" height="49" viewBox="0 0 52 49" fill="none" xmlns="http://www.w3.org/2000/svg">
<path fill-rule="evenodd" clip-rule="evenodd" d="M48.3352 5.05055C45.494 1.67668 37.7161 5.62101e-07 24.9099 -1.02411e-08C15.6228 -4.25309e-07 13.0905 0.246092 8.48938 1.59677C0.159447 4.04143 -2.22291 7.81555 2.15409 11.6335C5.93285 14.9296 12.356 16.2265 24.9099 16.2265C37.4639 16.2265 43.887 14.9296 47.6658 11.6335C50.2996 9.33666 50.4768 7.59209 48.3352 5.05055ZM49.3946 18.638C49.3946 15.1888 49.3946 15.5925 47.6658 17.0886C44.1634 20.1195 36.381 22.5974 24.9099 22.5974C13.4033 22.5974 5.69582 20.1541 2.15409 17.0886C-0.238877 15.018 0.408592 16.3835 0.0541908 18.638C-0.318387 21.002 3.63757 23.9834 9.1588 25.5003C15.9341 27.3622 33.8858 27.3622 40.6611 25.5003C47.2872 23.6793 49.3946 22.0871 49.3946 18.638ZM49.3946 27.696C48.5367 26.8948 49.8013 25.8475 47.6658 27.696C44.1634 30.7269 36.381 33.2048 24.9099 33.2048C13.4033 33.2048 5.69582 30.7615 2.15409 27.696C-0.238877 25.6254 0.408591 26.991 0.0541903 29.2454C-0.318387 31.6094 3.63757 34.5908 9.1588 36.1077C15.9341 37.9696 33.8858 37.9696 40.6611 36.1077C47.2872 34.2867 51.799 29.9412 49.3946 27.696ZM49.3946 38.3034C48.5374 37.5029 47.6658 38.3034 45.6575 39.6046C40.6611 41.0755 32.9309 42.7946 25.7482 43.4558C20.093 43.9763 23.8854 45.3729 25.7482 47.469C27.8428 49.8259 47.2653 44.5441 51.2409 41.0755C53.3446 39.2404 50.5275 39.3613 49.3946 38.3034ZM42.3301 9.81541C32.7938 13.3781 11.5911 12.8216 5.22102 8.84094C4.21158 8.21015 4.21158 8.05174 5.22102 7.42096C9.61241 4.67646 24.5427 3.15819 33.8109 4.51311C39.5282 5.34897 45.3561 7.17487 45.3561 8.13095C45.3561 8.43574 43.9946 9.19311 42.3301 9.81541Z" fill="#4F46BA"/>
</svg>
