<svg width="36" height="49" viewBox="0 0 36 49" fill="none" xmlns="http://www.w3.org/2000/svg">
<path d="M17.9999 48.0553C14.752 45.1796 11.7416 42.027 8.99996 38.6304C4.88569 33.5296 2.27226e-06 25.9331 2.27226e-06 18.6942C-0.00364441 11.1339 4.38233 4.31635 11.1113 1.42297C17.8402 -1.47041 25.5858 0.130664 30.7336 5.47908C34.1187 8.97733 36.015 13.7359 35.9999 18.6942C35.9999 25.9331 31.1141 33.5296 26.9999 38.6304C24.2583 42.027 21.2478 45.1796 17.9999 48.0553ZM17.9999 5.34829C10.9027 5.35711 5.15134 11.3271 5.14284 18.6942C5.14284 21.8065 6.49797 27.1956 12.9471 35.2058C14.5366 37.1758 16.2231 39.0592 17.9999 40.8485C19.7769 39.0614 21.4642 37.1807 23.0553 35.2138C29.5019 27.1929 30.857 21.8038 30.857 18.6942C30.8485 11.3271 25.0972 5.35711 17.9999 5.34829ZM17.9999 26.7018C13.7395 26.7018 10.2857 23.1167 10.2857 18.6942C10.2857 14.2718 13.7395 10.6867 17.9999 10.6867C22.2604 10.6867 25.7142 14.2718 25.7142 18.6942C25.7142 20.818 24.9014 22.8547 23.4547 24.3564C22.008 25.8581 20.0459 26.7018 17.9999 26.7018Z" fill="#4F46BA"/>
</svg>
