<svg width="12" height="13" viewBox="0 0 12 13" fill="none" xmlns="http://www.w3.org/2000/svg">
<path d="M3.8281 3.87296C3.11267 4.49451 2.8505 5.62805 3.46825 6.53742C4.04632 7.38839 4.7745 8.13276 5.6066 8.72354C6.49604 9.35504 7.60464 9.0869 8.21247 8.35539L8.21924 8.35859C8.99563 8.72631 9.82026 8.97836 10.6667 9.1068V10.9061L10.6659 10.9061L10.664 10.9061C5.34768 10.9138 1.32765 6.75575 1.33334 1.36571V1.36327H3.09291L3.09303 1.36406C3.21866 2.22938 3.46507 3.0718 3.82476 3.86559L3.8281 3.87296ZM10.6659 12.2694H11.3333C11.7015 12.2694 12 11.9642 12 11.5877V8.51886C12 8.18105 11.758 7.8942 11.4312 7.84461L10.8618 7.7582C10.1415 7.64891 9.44036 7.43452 8.77967 7.1216L8.27777 6.88388C7.98692 6.74612 7.64136 6.8395 7.45505 7.1062L7.22784 7.43145C7.0287 7.71652 6.64852 7.80358 6.3671 7.60378C5.66557 7.10569 5.05071 6.47717 4.56335 5.75973C4.36788 5.47197 4.45304 5.08319 4.73189 4.87958L5.04985 4.64742C5.31073 4.45693 5.40207 4.10357 5.26731 3.80617L5.03456 3.29251C4.72849 2.61706 4.51882 1.90022 4.41191 1.16388L4.32736 0.581541C4.27884 0.247405 3.9983 0 3.66792 0H0.666674C0.298484 0 6.81747e-06 0.305177 6.81747e-06 0.681633V1.36424C-0.00647291 7.50333 4.60682 12.2782 10.6659 12.2694Z" fill="#252B42"/>
</svg>
